<?xml version="1.0" standalone="no"?>
<!DOCTYPE svg PUBLIC "-//W3C//DTD SVG 20010904//EN"
 "http://www.w3.org/TR/2001/REC-SVG-20010904/DTD/svg10.dtd">
<svg version="1.0" xmlns="http://www.w3.org/2000/svg"
 width="512.000000pt" height="512.000000pt" viewBox="0 0 512.000000 512.000000"
 preserveAspectRatio="xMidYMid meet">
<metadata>
Created by potrace 1.14, written by Peter Selinger 2001-2017
</metadata>
<g transform="translate(0.000000,512.000000) scale(0.100000,-0.100000)"
fill="#000000" stroke="none">
<path d="M1085 4975 c-282 -50 -528 -197 -706 -421 -178 -222 -258 -473 -246
-764 10 -228 65 -399 192 -590 172 -259 438 -433 757 -494 74 -15 331 -16 393
-2 102 22 171 40 180 46 6 3 33 15 60 25 178 64 385 228 506 402 85 123 168
312 185 421 3 20 10 57 14 82 10 50 7 305 -4 360 -35 173 -89 305 -187 450
-136 203 -351 364 -592 445 -160 53 -384 69 -552 40z m386 -525 c169 -57 302
-170 377 -322 55 -110 71 -187 67 -313 -5 -172 -65 -307 -191 -431 -81 -80
-195 -143 -304 -168 -62 -15 -224 -16 -275 -3 -134 35 -229 90 -322 184 -156
158 -217 384 -161 600 30 118 80 206 168 293 97 96 200 152 333 180 70 15 235
4 308 -20z"/>
<path d="M3635 4974 c-550 -104 -945 -577 -945 -1133 0 -560 389 -1025 950
-1137 55 -11 310 -14 360 -4 25 4 59 10 75 13 98 15 250 76 363 144 42 25 79
49 82 53 3 3 16 13 29 22 28 20 125 112 165 158 126 145 220 341 262 550 14
71 13 323 -2 400 -16 86 -39 170 -60 220 -148 354 -430 601 -794 697 -123 32
-361 40 -485 17z m348 -511 c236 -54 419 -239 484 -488 13 -51 12 -213 -3
-275 -50 -217 -223 -404 -437 -472 -79 -25 -238 -31 -326 -12 -178 38 -352
174 -430 336 -54 111 -70 187 -66 313 5 171 62 301 185 425 87 87 167 134 285
166 95 26 217 29 308 7z"/>
<path d="M1128 2424 c-3 -2 -22 -6 -44 -9 -269 -41 -534 -202 -724 -441 -81
-101 -176 -308 -206 -449 -25 -120 -30 -320 -10 -434 98 -564 583 -970 1149
-960 137 2 235 19 356 59 294 99 541 319 674 601 79 168 112 341 104 539 -10
229 -66 400 -193 590 -220 329 -563 510 -966 508 -75 0 -138 -2 -140 -4z m282
-517 c145 -38 226 -83 321 -178 123 -123 187 -276 187 -448 1 -276 -180 -524
-449 -612 -79 -26 -237 -33 -325 -14 -61 13 -187 68 -234 102 -72 52 -163 160
-200 237 -56 117 -69 177 -65 304 5 181 59 306 187 434 85 85 191 145 303 172
54 13 230 15 275 3z"/>
<path d="M3635 2414 c-550 -104 -945 -577 -945 -1133 0 -560 389 -1025 950
-1137 55 -11 310 -14 360 -4 25 4 59 10 75 13 98 15 250 76 363 144 42 25 79
49 82 53 3 3 16 13 29 22 28 20 125 112 165 158 126 145 220 341 262 550 14
71 13 323 -2 400 -16 86 -39 170 -60 220 -148 354 -430 601 -794 697 -123 32
-361 40 -485 17z m348 -511 c236 -54 419 -239 484 -488 13 -51 12 -213 -3
-275 -50 -217 -223 -404 -437 -472 -79 -25 -238 -31 -326 -12 -178 38 -352
174 -430 336 -54 111 -70 187 -66 313 5 171 62 301 185 425 87 87 167 134 285
166 95 26 217 29 308 7z"/>
</g>
</svg>
