<svg width="0" height="0" class="hidden">
  <symbol xmlns="http://www.w3.org/2000/svg" viewBox="0 0 16 21" id="icon-user">
    <path d="M0 21a8 8 0 1 1 16 0h-2a6 6 0 0 0-12 0H0Zm8-9c-3.315 0-6-2.685-6-6s2.685-6 6-6 6 2.685 6 6-2.685 6-6 6Zm0-2c2.21 0 4-1.79 4-4s-1.79-4-4-4-4 1.79-4 4 1.79 4 4 4Z"></path>
  </symbol>
  <symbol xmlns="http://www.w3.org/2000/svg" viewBox="0 0 16 21" id="icon-user-active">
    <path d="M0 21a8 8 0 1 1 16 0H0Zm8-9c-3.315 0-6-2.685-6-6s2.685-6 6-6 6 2.685 6 6-2.685 6-6 6Z"/>
  </symbol>
  <symbol xmlns="http://www.w3.org/2000/svg" viewBox="0 0 21 21" id="icon-search">
    <path d="m16.031 14.617 4.283 4.282-1.415 1.415-4.282-4.283A8.96 8.96 0 0 1 9 18c-4.968 0-9-4.032-9-9s4.032-9 9-9 9 4.032 9 9a8.96 8.96 0 0 1-1.969 5.617Zm-2.006-.742A6.977 6.977 0 0 0 16 9c0-3.867-3.133-7-7-7S2 5.133 2 9s3.133 7 7 7a6.977 6.977 0 0 0 4.875-1.975l.15-.15Z"></path>
  </symbol>
  <symbol xmlns="http://www.w3.org/2000/svg" viewBox="0 0 20 20" id="icon-genres">
    <path d="M5 9.5a4.5 4.5 0 1 1 0-9 4.5 4.5 0 0 1 0 9Zm0 10a4.5 4.5 0 1 1 0-9 4.5 4.5 0 0 1 0 9Zm10-10a4.5 4.5 0 1 1 0-9 4.5 4.5 0 0 1 0 9Zm0 10a4.5 4.5 0 1 1 0-9 4.5 4.5 0 0 1 0 9ZM5 7.5a2.5 2.5 0 1 0 0-5 2.5 2.5 0 0 0 0 5Zm0 10a2.5 2.5 0 1 0 0-5 2.5 2.5 0 0 0 0 5Zm10-10a2.5 2.5 0 1 0 0-5 2.5 2.5 0 0 0 0 5Zm0 10a2.5 2.5 0 1 0 0-5 2.5 2.5 0 0 0 0 5Z"></path>
  </symbol>
  <symbol xmlns="http://www.w3.org/2000/svg" viewBox="0 0 20 20" id="icon-random">
    <path d="M10 2a7.992 7.992 0 0 1 6.616 3.5H14v2h6v-6h-2V4a9.984 9.984 0 0 0-8-4C4.477 0 0 4.477 0 10h2a8 8 0 0 1 8-8Zm8 8a8 8 0 0 1-14.616 4.5H6v-2H0v6h2V16a9.984 9.984 0 0 0 8 4c5.523 0 10-4.477 10-10h-2Z"></path>
  </symbol>
  <symbol xmlns="http://www.w3.org/2000/svg" viewBox="0 0 20 19" id="icon-favorite">
    <path d="M14.5 0C17.538 0 20 2.5 20 6c0 7-7.5 11-10 12.5C7.5 17 0 13 0 6c0-3.5 2.5-6 5.5-6C7.36 0 9 1 10 2c1-1 2.64-2 4.5-2Zm-3.566 15.604a26.752 26.752 0 0 0 2.42-1.701C16.335 11.533 18 8.943 18 6c0-2.36-1.537-4-3.5-4-1.076 0-2.24.57-3.086 1.414L10 4.828 8.586 3.414C7.74 2.57 6.576 2 5.5 2 3.56 2 2 3.656 2 6c0 2.944 1.666 5.533 4.645 7.903.745.592 1.54 1.146 2.421 1.7.299.189.595.37.934.572.339-.202.635-.383.934-.571Z"></path>
  </symbol>
  <symbol xmlns="http://www.w3.org/2000/svg" viewBox="0 0 20 19" id="icon-favorite-active">
    <path d="M14.5 0C17.538 0 20 2.5 20 6c0 7-7.5 11-10 12.5C7.5 17 0 13 0 6c0-3.5 2.5-6 5.5-6C7.36 0 9 1 10 2c1-1 2.64-2 4.5-2Z"/>
  </symbol>
  <symbol xmlns="http://www.w3.org/2000/svg" viewBox="0 0 16 15" id="icon-star">
    <path d="m8.001 12.173-4.702 2.632 1.05-5.285L.393 5.86l5.35-.634L8.002.333l2.257 4.894 5.352.634-3.957 3.659 1.05 5.285-4.702-2.632Z"/>
  </symbol>
  <symbol xmlns="http://www.w3.org/2000/svg" viewBox="0 0 24 24" id="icon-copyright">
    <path fill="currentColor" fill-opacity=".7" d="M16.288 9.428A4.999 4.999 0 0 0 7 12a4.999 4.999 0 0 0 9.288 2.572l-1.715-1.028A3 3 0 1 1 12 9c1.093 0 2.05.584 2.573 1.457l1.715-1.03ZM22 12c0-5.52-4.48-10-10-10S2 6.48 2 12s4.48 10 10 10 10-4.48 10-10ZM4 12c0-4.42 3.58-8 8-8s8 3.58 8 8-3.58 8-8 8-8-3.58-8-8Z"/>
  </symbol>
  <symbol xmlns="http://www.w3.org/2000/svg" viewBox="0 0 12 8" id="icon-youtube">
    <path fill="currentColor" fill-opacity=".8" fill-rule="evenodd" d="M10.002.7c.44.12.787.477.905.93.214.82.214 2.53.214 2.53s0 1.71-.214 2.53a1.3 1.3 0 0 1-.905.93C9.203 7.84 6 7.84 6 7.84s-3.202 0-4-.22a1.3 1.3 0 0 1-.906-.93C.88 5.87.88 4.16.88 4.16s0-1.71.214-2.53A1.3 1.3 0 0 1 2 .7C2.8.48 6 .48 6 .48s3.203 0 4.002.22ZM5.04 2.72v3.2l2.56-1.6-2.56-1.6Z" clip-rule="evenodd"/>
  </symbol>
  <symbol xmlns="http://www.w3.org/2000/svg" viewBox="0 0 13 7" id="icon-vkontakte">
    <path fill="currentColor" fill-opacity=".8" fill-rule="evenodd" d="M12.659.586c.092-.263 0-.454-.41-.454h-1.361c-.344 0-.502.167-.595.347 0 0-.7 1.53-1.679 2.523-.317.287-.462.382-.634.382-.092 0-.211-.095-.211-.358V.574c0-.31-.106-.454-.397-.454H5.231c-.212 0-.344.144-.344.287 0 .299.49.37.542 1.208v1.817c0 .395-.08.467-.251.467-.463 0-1.586-1.543-2.26-3.3C2.786.251 2.654.12 2.31.12H.935C.54.12.473.288.473.467c0 .323.462 1.949 2.154 4.101 1.124 1.471 2.723 2.26 4.164 2.26.872 0 .978-.18.978-.478V5.238c0-.359.079-.419.356-.419.199 0 .556.096 1.362.801.925.837 1.084 1.22 1.6 1.22h1.36c.397 0 .582-.18.476-.526-.119-.347-.568-.849-1.15-1.447-.317-.335-.793-.705-.938-.885-.198-.239-.145-.334 0-.55-.013 0 1.652-2.128 1.824-2.846Z" clip-rule="evenodd"/>
  </symbol>
  <symbol xmlns="http://www.w3.org/2000/svg" viewBox="0 0 8 13" id="icon-ok">
    <path fill="currentColor" fill-opacity=".8" d="m5.279 8.842 1.769 1.707a.872.872 0 0 1 0 1.266.95.95 0 0 1-1.31 0l-1.74-1.678-1.738 1.678a.944.944 0 0 1-.656.262.942.942 0 0 1-.655-.262.873.873 0 0 1 0-1.266l1.769-1.707A6.058 6.058 0 0 1 .88 8.107a.877.877 0 0 1-.29-1.234.946.946 0 0 1 1.278-.281 4.14 4.14 0 0 0 4.26 0 .946.946 0 0 1 1.279.281.877.877 0 0 1-.29 1.234 6.048 6.048 0 0 1-1.838.735Z"/>
    <path fill="currentColor" fill-opacity=".8" fill-rule="evenodd" d="M.826 3.295c0 1.684 1.42 3.053 3.165 3.053s3.164-1.37 3.164-3.053C7.155 1.61 5.736.24 3.99.24 2.245.24.826 1.61.826 3.295Zm4.475 0c0-.698-.588-1.265-1.31-1.265-.722 0-1.31.567-1.31 1.264 0 .697.588 1.265 1.31 1.265.722 0 1.31-.568 1.31-1.265Z" clip-rule="evenodd"/>
  </symbol>
  <symbol xmlns="http://www.w3.org/2000/svg" viewBox="0 0 12 10" id="icon-telegram">
    <path fill="currentColor" fill-opacity=".8" d="M.734 4.906c1.122-.618 2.375-1.134 3.545-1.653 2.014-.85 4.036-1.684 6.078-2.46.397-.133 1.111-.263 1.181.326-.038.834-.196 1.662-.304 2.49-.275 1.823-.592 3.639-.901 5.455-.107.605-.865.918-1.35.53-1.165-.786-2.34-1.566-3.49-2.371-.376-.383-.027-.933.31-1.206.96-.946 1.977-1.75 2.887-2.745.245-.592-.48-.093-.719.06-1.314.906-2.595 1.866-3.98 2.662-.708.39-1.533.057-2.24-.16C1.116 5.57.187 5.305.734 4.905Z"/>
  </symbol>
  <symbol xmlns="http://www.w3.org/2000/svg" viewBox="0 0 14 22" id="icon-arrow">
    <path fill="currentColor" d="m5.047 11.001 8.25 8.25-2.357 2.357L.333 11 10.94.395l2.357 2.357-8.25 8.25Z"/>
  </symbol>
  <symbol xmlns="http://www.w3.org/2000/svg" viewBox="0 0 22 18" id="icon-email">
    <path d="M21 0a1 1 0 0 1 1 1v16.007a1 1 0 0 1-.992.993H2.992A.993.993 0 0 1 2 17.007V16h18V4.3l-8 7.2-10-9V1a1 1 0 0 1 1-1h18ZM8 12v2H0v-2h8ZM5 7v2H0V7h5Zm14.566-5H4.434L12 8.81 19.566 2Z"/>
  </symbol>
  <symbol xmlns="http://www.w3.org/2000/svg" viewBox="0 0 22 12" id="icon-key">
    <path d="M11.917 7A6.002 6.002 0 0 1 0 6a6 6 0 0 1 11.917-1H22v2h-2v4h-2V7h-2v4h-2V7h-2.083ZM6 10a4 4 0 1 0 0-8 4 4 0 0 0 0 8Z"/>
  </symbol>
  <symbol xmlns="http://www.w3.org/2000/svg" viewBox="0 0 20 20" id="icon-close">
    <path d="M8.586 10 .793 2.207 2.207.793 10 8.586 17.793.793l1.414 1.414L11.414 10l7.793 7.793-1.414 1.414L10 11.414l-7.793 7.793-1.414-1.414L8.586 10Z"/>
  </symbol>
  <symbol xmlns="http://www.w3.org/2000/svg" viewBox="0 0 14 14" id="icon-delete">
    <path d="m7 5.587 4.95-4.95 1.414 1.414L8.414 7l4.95 4.95-1.415 1.414L7 8.415l-4.949 4.95L.636 11.95 5.586 7 .635 2.05 2.05.638 7 5.587Z"/>
  </symbol>
</svg>