<svg xmlns="http://www.w3.org/2000/svg" width="240" height="32" fill="none">
  <path fill="#000" d="M11.808 32c-1.151 0-2.184-.06-3.1-.18-.889-.12-1.87-.346-2.941-.676-1.203-.36-2.197-.827-2.982-1.397-.784-.602-1.438-1.428-1.961-2.48C.274 26.217 0 24.97 0 23.528V10.682c0-5.89 3.936-8.834 11.808-8.834 2.013 0 4.707.33 8.08.991v5.274c-3.033-.842-5.7-1.262-8.002-1.262-.968 0-1.726.03-2.275.09-.523.06-1.072.21-1.648.45-1.229.481-1.843 1.548-1.843 3.2v12.44c0 2.644 2.105 3.966 6.315 3.966 1.805 0 4.341-.436 7.61-1.307v5.319c-2.798.66-5.544.991-8.237.991Z"/>
  <path fill="url(#a)" d="M11.808 32c-1.151 0-2.184-.06-3.1-.18-.889-.12-1.87-.346-2.941-.676-1.203-.36-2.197-.827-2.982-1.397-.784-.602-1.438-1.428-1.961-2.48C.274 26.217 0 24.97 0 23.528V10.682c0-5.89 3.936-8.834 11.808-8.834 2.013 0 4.707.33 8.08.991v5.274c-3.033-.842-5.7-1.262-8.002-1.262-.968 0-1.726.03-2.275.09-.523.06-1.072.21-1.648.45-1.229.481-1.843 1.548-1.843 3.2v12.44c0 2.644 2.105 3.966 6.315 3.966 1.805 0 4.341-.436 7.61-1.307v5.319c-2.798.66-5.544.991-8.237.991Z"/>
  <path fill="#000" d="M23.877 1.848h5.728v5.318h-5.728V1.848Zm0 7.887h5.728V31.55h-5.728V9.735Z"/>
  <path fill="url(#b)" d="M23.877 1.848h5.728v5.318h-5.728V1.848Zm0 7.887h5.728V31.55h-5.728V9.735Z"/>
  <path fill="#000" d="M34.791 9.735h5.65v2.66c.444-2.074 2.47-3.11 6.08-3.11 2.432 0 4.132.51 5.1 1.532.993.992 1.49 2.569 1.49 4.732v16h-5.727V16.406c0-.842-.079-1.473-.236-1.893-.13-.421-.418-.722-.863-.902-.418-.18-1.072-.27-1.961-.27-1.125 0-1.948.09-2.471.27-.523.15-.877.436-1.06.857-.183.42-.274 1.066-.274 1.938v15.143h-5.727V9.735Z"/>
  <path fill="url(#c)" d="M34.791 9.735h5.65v2.66c.444-2.074 2.47-3.11 6.08-3.11 2.432 0 4.132.51 5.1 1.532.993.992 1.49 2.569 1.49 4.732v16h-5.727V16.406c0-.842-.079-1.473-.236-1.893-.13-.421-.418-.722-.863-.902-.418-.18-1.072-.27-1.961-.27-1.125 0-1.948.09-2.471.27-.523.15-.877.436-1.06.857-.183.42-.274 1.066-.274 1.938v15.143h-5.727V9.735Z"/>
  <path fill="#000" d="M67.654 32c-6.721 0-10.082-2.359-10.082-7.076v-7.842c0-2.735.759-4.718 2.275-5.95 1.543-1.232 3.91-1.847 7.1-1.847 3.008 0 5.205.6 6.591 1.802 1.412 1.172 2.118 3.17 2.118 5.995V22.4H63.34v1.983c0 1.262.392 2.164 1.177 2.704.784.541 2.196.812 4.236.812 1.883 0 4.002-.316 6.355-.947v4.192c-2.327.57-4.812.856-7.453.856Zm2.55-13.34v-3.156c0-.72-.262-1.262-.785-1.622-.497-.36-1.347-.541-2.55-.541-1.386 0-2.314.18-2.785.54-.497.391-.745.932-.745 1.623v3.155h6.865Z"/>
  <path fill="url(#d)" d="M67.654 32c-6.721 0-10.082-2.359-10.082-7.076v-7.842c0-2.735.759-4.718 2.275-5.95 1.543-1.232 3.91-1.847 7.1-1.847 3.008 0 5.205.6 6.591 1.802 1.412 1.172 2.118 3.17 2.118 5.995V22.4H63.34v1.983c0 1.262.392 2.164 1.177 2.704.784.541 2.196.812 4.236.812 1.883 0 4.002-.316 6.355-.947v4.192c-2.327.57-4.812.856-7.453.856Zm2.55-13.34v-3.156c0-.72-.262-1.262-.785-1.622-.497-.36-1.347-.541-2.55-.541-1.386 0-2.314.18-2.785.54-.497.391-.745.932-.745 1.623v3.155h6.865Z"/>
  <path fill="#000" d="M80.034 9.735h5.727v2.66c.366-2.074 2.236-3.11 5.61-3.11 1.778 0 3.125.27 4.04.81.916.512 1.53 1.323 1.844 2.435.314-1.142.915-1.968 1.805-2.48.915-.51 2.288-.765 4.118-.765 1.648 0 2.916.225 3.806.676.889.42 1.503 1.081 1.843 1.983.366.901.549 2.103.549 3.605v16h-5.727V16.451c0-.962-.052-1.638-.157-2.029-.104-.42-.34-.706-.706-.856-.34-.15-.941-.225-1.804-.225-1.073 0-1.844.075-2.315.225-.444.15-.745.436-.902.856-.13.391-.196 1.067-.196 2.029v15.098H91.84V16.451c0-.962-.052-1.638-.156-2.029-.105-.42-.34-.706-.707-.856-.34-.15-.941-.225-1.804-.225-1.072 0-1.844.075-2.314.225-.445.15-.746.436-.903.856-.13.391-.196 1.067-.196 2.029v15.098h-5.727V9.735Z"/>
  <path fill="url(#e)" d="M80.034 9.735h5.727v2.66c.366-2.074 2.236-3.11 5.61-3.11 1.778 0 3.125.27 4.04.81.916.512 1.53 1.323 1.844 2.435.314-1.142.915-1.968 1.805-2.48.915-.51 2.288-.765 4.118-.765 1.648 0 2.916.225 3.806.676.889.42 1.503 1.081 1.843 1.983.366.901.549 2.103.549 3.605v16h-5.727V16.451c0-.962-.052-1.638-.157-2.029-.104-.42-.34-.706-.706-.856-.34-.15-.941-.225-1.804-.225-1.073 0-1.844.075-2.315.225-.444.15-.745.436-.902.856-.13.391-.196 1.067-.196 2.029v15.098H91.84V16.451c0-.962-.052-1.638-.156-2.029-.105-.42-.34-.706-.707-.856-.34-.15-.941-.225-1.804-.225-1.072 0-1.844.075-2.314.225-.445.15-.746.436-.903.856-.13.391-.196 1.067-.196 2.029v15.098h-5.727V9.735Z"/>
  <path fill="#000" d="M119.771 32c-1.778 0-3.112-.18-4.001-.54-.863-.392-1.478-1.068-1.844-2.029-.34-.992-.51-2.464-.51-4.417 0-1.743.183-3.11.549-4.101.392-.992 1.007-1.698 1.844-2.119.863-.45 2.04-.676 3.53-.676h6.434v-1.487c0-.931-.118-1.623-.353-2.073-.209-.451-.615-.767-1.216-.947-.576-.18-1.452-.27-2.629-.27-1.621 0-3.844.18-6.668.54V9.736c2.066-.3 4.485-.45 7.257-.45 2.432 0 4.302.21 5.609.63 1.334.421 2.289 1.142 2.864 2.164.575 1.021.863 2.509.863 4.462v15.008h-5.61v-1.983c-.444.872-1.046 1.488-1.804 1.848-.758.39-2.197.586-4.315.586Zm2.236-4.101c1.151 0 1.974-.046 2.471-.136.366-.06.615-.15.746-.27.157-.12.287-.316.392-.586.104-.21.157-.526.157-.946v-4.237h-3.923c-.889 0-1.517.075-1.883.225-.366.12-.615.39-.745.812-.131.39-.196 1.096-.196 2.118 0 .991.065 1.682.196 2.073.13.39.379.646.745.766.392.12 1.072.18 2.04.18Z"/>
  <path fill="url(#f)" d="M119.771 32c-1.778 0-3.112-.18-4.001-.54-.863-.392-1.478-1.068-1.844-2.029-.34-.992-.51-2.464-.51-4.417 0-1.743.183-3.11.549-4.101.392-.992 1.007-1.698 1.844-2.119.863-.45 2.04-.676 3.53-.676h6.434v-1.487c0-.931-.118-1.623-.353-2.073-.209-.451-.615-.767-1.216-.947-.576-.18-1.452-.27-2.629-.27-1.621 0-3.844.18-6.668.54V9.736c2.066-.3 4.485-.45 7.257-.45 2.432 0 4.302.21 5.609.63 1.334.421 2.289 1.142 2.864 2.164.575 1.021.863 2.509.863 4.462v15.008h-5.61v-1.983c-.444.872-1.046 1.488-1.804 1.848-.758.39-2.197.586-4.315.586Zm2.236-4.101c1.151 0 1.974-.046 2.471-.136.366-.06.615-.15.746-.27.157-.12.287-.316.392-.586.104-.21.157-.526.157-.946v-4.237h-3.923c-.889 0-1.517.075-1.883.225-.366.12-.615.39-.745.812-.131.39-.196 1.096-.196 2.118 0 .991.065 1.682.196 2.073.13.39.379.646.745.766.392.12 1.072.18 2.04.18Z"/>
  <path fill="#000" d="M148.896 32c-1.465 0-2.759-.075-3.884-.225a18.546 18.546 0 0 1-3.334-.766c-1.177-.361-2.145-.842-2.903-1.443-.758-.63-1.373-1.442-1.844-2.434-.47-1.051-.706-2.253-.706-3.605v-12.17c0-1.472.262-2.794.785-3.965.523-1.202 1.229-2.149 2.118-2.84.837-.63 1.831-1.172 2.981-1.622a15.34 15.34 0 0 1 3.452-.902c.942-.12 2.08-.18 3.413-.18 3.609 0 7.061.315 10.356.946v5.319c-3.033-.842-6.485-1.262-10.356-1.262-4.419 0-6.629 1.472-6.629 4.417V23.03c0 1.442.588 2.464 1.765 3.065 1.203.6 3.007.901 5.413.901 1.282 0 2.655-.225 4.119-.676v-6.806h-4.158v-4.597h10.003v15.189c-1.307.54-2.981.992-5.021 1.352-2.013.36-3.87.541-5.57.541Z"/>
  <path fill="url(#g)" d="M148.896 32c-1.465 0-2.759-.075-3.884-.225a18.546 18.546 0 0 1-3.334-.766c-1.177-.361-2.145-.842-2.903-1.443-.758-.63-1.373-1.442-1.844-2.434-.47-1.051-.706-2.253-.706-3.605v-12.17c0-1.472.262-2.794.785-3.965.523-1.202 1.229-2.149 2.118-2.84.837-.63 1.831-1.172 2.981-1.622a15.34 15.34 0 0 1 3.452-.902c.942-.12 2.08-.18 3.413-.18 3.609 0 7.061.315 10.356.946v5.319c-3.033-.842-6.485-1.262-10.356-1.262-4.419 0-6.629 1.472-6.629 4.417V23.03c0 1.442.588 2.464 1.765 3.065 1.203.6 3.007.901 5.413.901 1.282 0 2.655-.225 4.119-.676v-6.806h-4.158v-4.597h10.003v15.189c-1.307.54-2.981.992-5.021 1.352-2.013.36-3.87.541-5.57.541Z"/>
  <path fill="#000" d="M170.788 32c-2.432 0-4.145-.496-5.139-1.487-.967-1.022-1.451-2.614-1.451-4.778v-16h5.727v15.099c0 .841.065 1.472.196 1.893.157.42.445.72.863.901.445.18 1.112.27 2.001.27 1.124 0 1.948-.075 2.471-.225.523-.18.876-.48 1.059-.901.183-.42.275-1.067.275-1.938V9.735h5.727V31.55h-5.649V28.89c-.418 2.073-2.445 3.11-6.08 3.11Z"/>
  <path fill="url(#h)" d="M170.788 32c-2.432 0-4.145-.496-5.139-1.487-.967-1.022-1.451-2.614-1.451-4.778v-16h5.727v15.099c0 .841.065 1.472.196 1.893.157.42.445.72.863.901.445.18 1.112.27 2.001.27 1.124 0 1.948-.075 2.471-.225.523-.18.876-.48 1.059-.901.183-.42.275-1.067.275-1.938V9.735h5.727V31.55h-5.649V28.89c-.418 2.073-2.445 3.11-6.08 3.11Z"/>
  <path fill="#000" d="M187.685 1.848h5.727v5.318h-5.727V1.848Zm0 7.887h5.727V31.55h-5.727V9.735Z"/>
  <path fill="url(#i)" d="M187.685 1.848h5.727v5.318h-5.727V1.848Zm0 7.887h5.727V31.55h-5.727V9.735Z"/>
  <path fill="#000" d="M205.895 32c-2.249 0-3.909-.18-4.982-.54-1.072-.392-1.817-1.113-2.236-2.164-.418-1.052-.627-2.69-.627-4.913v-8.518c0-2.404.588-4.102 1.765-5.093 1.203-.992 3.138-1.487 5.806-1.487 1.255 0 2.236.09 2.942.27.732.15 1.32.436 1.765.856.445.39.902.977 1.373 1.758V0h5.727v31.55h-5.531v-2.48c-.471.872-.902 1.488-1.294 1.848-.367.33-.89.586-1.569.767-.707.21-1.753.315-3.139.315Zm1.452-4.101c1.281 0 2.223-.076 2.824-.226.602-.15 1.007-.42 1.216-.811.209-.42.314-1.037.314-1.848v-8.789c0-.75-.118-1.322-.353-1.712-.209-.421-.602-.722-1.177-.902-.549-.18-1.386-.27-2.51-.27-1.203 0-2.066.09-2.59.27-.523.15-.876.436-1.059.857-.157.39-.235 1.051-.235 1.983v8.338c0 .841.078 1.487.235 1.938.183.42.523.72 1.02.901.497.18 1.269.27 2.315.27Z"/>
  <path fill="url(#j)" d="M205.895 32c-2.249 0-3.909-.18-4.982-.54-1.072-.392-1.817-1.113-2.236-2.164-.418-1.052-.627-2.69-.627-4.913v-8.518c0-2.404.588-4.102 1.765-5.093 1.203-.992 3.138-1.487 5.806-1.487 1.255 0 2.236.09 2.942.27.732.15 1.32.436 1.765.856.445.39.902.977 1.373 1.758V0h5.727v31.55h-5.531v-2.48c-.471.872-.902 1.488-1.294 1.848-.367.33-.89.586-1.569.767-.707.21-1.753.315-3.139.315Zm1.452-4.101c1.281 0 2.223-.076 2.824-.226.602-.15 1.007-.42 1.216-.811.209-.42.314-1.037.314-1.848v-8.789c0-.75-.118-1.322-.353-1.712-.209-.421-.602-.722-1.177-.902-.549-.18-1.386-.27-2.51-.27-1.203 0-2.066.09-2.59.27-.523.15-.876.436-1.059.857-.157.39-.235 1.051-.235 1.983v8.338c0 .841.078 1.487.235 1.938.183.42.523.72 1.02.901.497.18 1.269.27 2.315.27Z"/>
  <path fill="#000" d="M231.997 32c-6.721 0-10.081-2.359-10.081-7.076v-7.842c0-2.735.758-4.718 2.275-5.95 1.543-1.232 3.91-1.847 7.1-1.847 3.008 0 5.205.6 6.591 1.802 1.412 1.172 2.118 3.17 2.118 5.995V22.4h-12.318v1.983c0 1.262.393 2.164 1.177 2.704.785.541 2.197.812 4.237.812 1.883 0 4.001-.316 6.355-.947v4.192c-2.328.57-4.812.856-7.454.856Zm2.55-13.34v-3.156c0-.72-.261-1.262-.784-1.622-.497-.36-1.347-.541-2.55-.541-1.386 0-2.315.18-2.785.54-.497.391-.746.932-.746 1.623v3.155h6.865Z"/>
  <path fill="url(#k)" d="M231.997 32c-6.721 0-10.081-2.359-10.081-7.076v-7.842c0-2.735.758-4.718 2.275-5.95 1.543-1.232 3.91-1.847 7.1-1.847 3.008 0 5.205.6 6.591 1.802 1.412 1.172 2.118 3.17 2.118 5.995V22.4h-12.318v1.983c0 1.262.393 2.164 1.177 2.704.785.541 2.197.812 4.237.812 1.883 0 4.001-.316 6.355-.947v4.192c-2.328.57-4.812.856-7.454.856Zm2.55-13.34v-3.156c0-.72-.261-1.262-.784-1.622-.497-.36-1.347-.541-2.55-.541-1.386 0-2.315.18-2.785.54-.497.391-.746.932-.746 1.623v3.155h6.865Z"/>
  <defs>
    <linearGradient id="a" x1="-2.197" x2="218.726" y1="-6.761" y2="91.668" gradientUnits="userSpaceOnUse">
      <stop offset=".2" stop-color="#6A5DC2"/>
      <stop offset=".8" stop-color="#DC5DFC"/>
    </linearGradient>
    <linearGradient id="b" x1="-2.197" x2="218.726" y1="-6.761" y2="91.668" gradientUnits="userSpaceOnUse">
      <stop offset=".2" stop-color="#6A5DC2"/>
      <stop offset=".8" stop-color="#DC5DFC"/>
    </linearGradient>
    <linearGradient id="c" x1="-2.197" x2="218.726" y1="-6.761" y2="91.668" gradientUnits="userSpaceOnUse">
      <stop offset=".2" stop-color="#6A5DC2"/>
      <stop offset=".8" stop-color="#DC5DFC"/>
    </linearGradient>
    <linearGradient id="d" x1="-2.197" x2="218.726" y1="-6.761" y2="91.668" gradientUnits="userSpaceOnUse">
      <stop offset=".2" stop-color="#6A5DC2"/>
      <stop offset=".8" stop-color="#DC5DFC"/>
    </linearGradient>
    <linearGradient id="e" x1="-2.197" x2="218.726" y1="-6.761" y2="91.668" gradientUnits="userSpaceOnUse">
      <stop offset=".2" stop-color="#6A5DC2"/>
      <stop offset=".8" stop-color="#DC5DFC"/>
    </linearGradient>
    <linearGradient id="f" x1="-2.197" x2="218.726" y1="-6.761" y2="91.668" gradientUnits="userSpaceOnUse">
      <stop offset=".2" stop-color="#6A5DC2"/>
      <stop offset=".8" stop-color="#DC5DFC"/>
    </linearGradient>
    <linearGradient id="g" x1="-2.197" x2="218.726" y1="-6.761" y2="91.668" gradientUnits="userSpaceOnUse">
      <stop offset=".2" stop-color="#6A5DC2"/>
      <stop offset=".8" stop-color="#DC5DFC"/>
    </linearGradient>
    <linearGradient id="h" x1="-2.197" x2="218.726" y1="-6.761" y2="91.668" gradientUnits="userSpaceOnUse">
      <stop offset=".2" stop-color="#6A5DC2"/>
      <stop offset=".8" stop-color="#DC5DFC"/>
    </linearGradient>
    <linearGradient id="i" x1="-2.197" x2="218.726" y1="-6.761" y2="91.668" gradientUnits="userSpaceOnUse">
      <stop offset=".2" stop-color="#6A5DC2"/>
      <stop offset=".8" stop-color="#DC5DFC"/>
    </linearGradient>
    <linearGradient id="j" x1="-2.197" x2="218.726" y1="-6.761" y2="91.668" gradientUnits="userSpaceOnUse">
      <stop offset=".2" stop-color="#6A5DC2"/>
      <stop offset=".8" stop-color="#DC5DFC"/>
    </linearGradient>
    <linearGradient id="k" x1="-2.197" x2="218.726" y1="-6.761" y2="91.668" gradientUnits="userSpaceOnUse">
      <stop offset=".2" stop-color="#6A5DC2"/>
      <stop offset=".8" stop-color="#DC5DFC"/>
    </linearGradient>
  </defs>
</svg>
